<mxfile host="app.diagrams.net" modified="2024-01-17T14:39:19.047Z" agent="Mozilla/5.0 (Windows NT 10.0; Win64; x64) AppleWebKit/537.36 (KHTML, like Gecko) Chrome/120.0.0.0 Safari/537.36" version="22.1.21" etag="lauE-wNq1OiT9hgIL4Jt" type="github">
  <diagram name="Страница — 1" id="jmmNTAN9SPgEF0M5o_9W">
    <mxGraphModel>
      <root>
        <mxCell id="0" />
        <mxCell id="1" parent="0" />
      </root>
    </mxGraphModel>
  </diagram>
</mxfile>
